<?xml version="1.0" standalone="no"?>
<!DOCTYPE svg PUBLIC "-//W3C//DTD SVG 20010904//EN"
 "http://www.w3.org/TR/2001/REC-SVG-20010904/DTD/svg10.dtd">
<svg version="1.0" xmlns="http://www.w3.org/2000/svg" 
 width="916.000000pt" height="818.000000pt" viewBox="0 0 916.000000 818.000000"
 preserveAspectRatio="xMidYMid meet">
<metadata>
Created by potrace 1.16, written by Peter Selinger 2001-2019
</metadata>
<g transform="translate(0.000000,818.000000) scale(0.100000,-0.100000)"
fill="white" stroke="none">
<path d="M4278 7520 c-88 -33 -141 -81 -184 -168 -24 -48 -26 -62 -22 -135 5
-93 24 -139 85 -203 82 -89 200 -117 322 -77 51 16 132 77 152 114 9 18 8 18
-29 -1 -124 -65 -289 -13 -356 111 -25 44 -30 66 -30 119 0 97 38 170 123 240
21 18 22 20 5 19 -10 0 -40 -9 -66 -19z"/>
<path d="M4302 6786 c-22 -32 -118 -127 -192 -191 -46 -39 -108 -82 -195 -135
-106 -65 -295 -166 -355 -190 -19 -8 -37 -16 -40 -20 -3 -3 -35 -20 -72 -37
-36 -18 -69 -37 -73 -43 -3 -5 -12 -10 -19 -10 -12 0 -74 -33 -156 -82 -19
-12 -44 -26 -55 -32 -46 -25 -155 -113 -166 -133 -7 -12 -15 -21 -18 -18 -10
5 -108 -107 -174 -198 -70 -98 -146 -252 -181 -367 -25 -85 -61 -259 -54 -265
2 -2 19 26 38 63 73 143 180 264 341 387 54 41 101 75 105 75 4 0 21 11 38 24
32 24 228 136 376 215 162 86 362 219 459 306 35 31 124 122 161 165 55 62
190 286 190 313 0 4 9 26 19 50 25 52 55 146 50 152 -3 2 -15 -11 -27 -29z"/>
<path d="M4400 6802 c0 -39 139 -351 170 -382 3 -3 21 -27 40 -55 47 -68 85
-110 186 -205 57 -54 245 -200 257 -200 6 0 139 -81 147 -90 3 -3 48 -27 100
-54 119 -62 315 -174 357 -204 17 -12 34 -22 38 -22 14 0 163 -118 233 -185
83 -79 153 -169 207 -268 21 -37 39 -67 40 -65 2 2 -4 41 -12 87 -32 187 -122
403 -229 551 -86 120 -240 271 -330 325 -170 102 -525 285 -552 285 -6 0 -12
3 -14 8 -1 4 -37 25 -78 46 -41 21 -94 52 -118 67 -24 16 -45 29 -47 29 -21 0
-194 138 -282 225 -62 61 -113 109 -113 107z"/>
<path d="M5648 3869 c-13 -4 -44 -7 -70 -8 -26 -1 -50 -5 -53 -11 -3 -5 -17
-10 -30 -10 -14 0 -29 -9 -35 -20 -6 -11 -15 -18 -21 -15 -5 4 -8 1 -7 -7 2
-10 -8 -12 -41 -10 -32 3 -41 0 -36 -9 6 -8 4 -10 -4 -5 -7 5 -20 1 -29 -7 -9
-8 -26 -17 -37 -20 -58 -16 -128 -46 -107 -47 39 0 24 -35 -15 -35 -17 0 -35
-3 -39 -7 -4 -5 -19 -8 -33 -8 -25 0 -91 -33 -91 -46 0 -4 6 -1 14 5 12 10 13
9 9 -7 -5 -22 -47 -31 -107 -24 -27 3 -34 8 -33 23 2 23 17 25 17 2 0 -14 2
-14 20 2 20 18 21 18 14 1 -5 -14 -3 -17 7 -14 8 3 14 12 13 20 -1 8 4 15 10
15 6 0 27 8 46 16 47 21 9 23 -49 2 -22 -8 -65 -17 -94 -20 -28 -3 -56 -10
-62 -16 -5 -5 -21 -9 -36 -9 -30 0 -47 -15 -27 -23 8 -4 7 -6 -4 -6 -9 -1 -19
-7 -22 -13 -3 -7 -3 -3 0 10 4 15 1 22 -10 22 -8 0 -18 -4 -21 -10 -3 -5 -19
-10 -36 -10 -16 0 -29 -4 -29 -10 0 -5 7 -10 15 -10 17 0 20 -16 6 -25 -5 -3
-16 2 -24 10 -17 17 -52 21 -42 5 3 -5 1 -10 -4 -10 -6 0 -11 6 -12 13 0 6 -5
-1 -11 -16 -14 -40 1 -54 41 -37 16 6 36 10 43 7 7 -3 2 -6 -12 -7 l-25 -1 25
-14 c19 -11 21 -14 8 -15 -22 0 -24 -16 -3 -24 15 -5 21 -37 9 -48 -3 -3 -21
-1 -40 5 -27 8 -40 8 -55 -1 -10 -7 -29 -12 -41 -11 -15 0 -18 2 -8 6 21 8 50
40 43 47 -3 3 0 13 8 22 12 15 10 16 -21 10 -23 -5 -30 -4 -21 2 16 12 -3 27
-21 16 -7 -5 -8 -3 -3 6 5 8 3 11 -6 8 -8 -3 -13 -13 -11 -22 3 -14 -1 -16
-17 -11 -23 7 -34 -18 -27 -59 3 -19 0 -26 -12 -26 -12 0 -13 3 -5 11 6 6 9
18 6 26 -4 11 -8 11 -17 -3 -15 -20 -56 -10 -57 14 0 11 -2 13 -6 4 -4 -10 -8
-10 -19 -1 -8 6 -11 15 -8 20 3 5 0 9 -5 9 -6 0 -11 7 -11 16 0 12 -7 15 -24
12 -15 -3 -23 -1 -20 6 4 11 -46 40 -108 65 -35 13 -88 4 -88 -16 0 -8 -9 -17
-20 -20 -11 -3 -20 -9 -20 -13 0 -4 -12 -11 -27 -15 -38 -9 -53 -23 -53 -51 0
-12 -4 -26 -10 -29 -5 -3 -15 -15 -21 -27 -10 -18 -8 -19 13 -13 12 4 20 4 16
0 -4 -4 11 -18 34 -30 31 -17 50 -20 78 -15 32 6 37 4 33 -10 -5 -18 23 -47
34 -36 4 4 1 11 -7 16 -8 5 -11 13 -6 17 5 4 11 2 13 -5 3 -6 8 -10 13 -7 4 3
6 -4 3 -15 -6 -23 15 -28 35 -8 9 9 12 8 12 -5 0 -18 55 -51 70 -42 17 10 1
25 -26 25 -14 0 -22 4 -19 10 10 17 33 11 59 -15 14 -14 36 -30 48 -35 21 -8
21 -9 3 -9 -15 -1 -9 -8 23 -27 38 -23 70 -25 57 -4 -3 5 0 12 6 16 6 3 14 1
18 -5 5 -8 13 -7 27 4 17 13 17 14 2 15 -9 0 -20 5 -24 12 -5 7 -2 9 7 6 11
-4 14 3 11 33 -4 36 -2 39 21 39 22 0 26 -5 29 -32 3 -30 4 -31 21 -14 9 10
23 15 30 13 9 -4 9 -6 0 -6 -18 -1 -16 -21 1 -21 7 0 21 12 31 26 12 19 20 23
29 14 18 -14 46 -2 46 21 0 10 9 24 20 31 11 7 20 18 20 25 0 7 11 13 25 13
14 0 25 -5 25 -11 0 -5 5 -7 10 -4 6 4 8 10 5 15 -3 5 15 12 40 16 25 3 47 10
50 14 3 5 14 6 25 3 13 -3 20 0 20 8 0 11 2 11 10 -1 8 -12 13 -13 30 -2 11 6
26 12 34 12 21 0 40 27 24 34 -7 3 1 3 17 0 23 -4 27 -3 15 5 -13 9 -9 14 10
13 3 0 11 7 19 15 12 13 11 14 -6 9 -15 -5 -22 -1 -26 14 -6 22 3 26 20 9 14
-14 48 -8 49 9 1 6 2 17 3 23 0 7 13 9 31 7 22 -3 27 -1 20 8 -8 8 -4 13 14
16 14 3 23 1 20 -3 -3 -5 -2 -14 2 -21 5 -8 11 -6 19 6 12 15 13 15 19 0 9
-24 2 -28 -59 -26 -34 1 -55 -3 -55 -10 0 -7 12 -8 33 -4 22 4 27 3 17 -3 -32
-21 -1 -19 41 2 34 17 43 27 42 45 -2 14 3 22 13 22 11 0 14 -5 10 -16 -5 -13
-1 -14 27 -9 17 4 45 15 62 25 25 16 27 20 12 26 -13 5 -15 10 -7 19 8 9 6 14
-6 19 -14 5 -15 9 -5 19 9 9 14 9 22 -3 8 -11 12 -12 16 -2 6 14 33 16 33 2 0
-5 -6 -9 -12 -7 -7 1 -14 -9 -16 -22 -4 -22 -3 -23 19 -7 13 9 31 16 41 16 21
0 24 16 6 23 -7 3 2 3 20 0 31 -5 46 10 20 20 -8 3 -6 6 5 6 9 1 17 -6 17 -14
0 -9 6 -12 15 -9 8 4 15 15 15 25 0 16 8 19 54 19 30 0 58 5 61 10 3 6 -3 10
-14 10 -12 0 -21 5 -21 10 0 6 13 10 28 10 15 0 33 5 40 12 9 9 12 9 12 0 0
-7 8 -12 18 -12 27 0 62 29 62 51 0 13 7 19 21 19 11 0 17 -4 14 -10 -3 -5 -1
-10 4 -10 6 0 11 7 11 15 0 8 0 18 0 23 0 4 -3 7 -7 8 -5 0 -15 3 -23 7 -23 9
-106 13 -132 6z"/>
<path d="M2332 3862 c-43 -2 -72 -7 -70 -13 2 -5 75 -43 163 -83 182 -83 254
-116 340 -156 33 -16 141 -65 240 -110 99 -45 222 -102 274 -126 51 -24 95
-44 97 -44 2 0 52 -23 111 -51 60 -28 117 -54 128 -59 11 -4 137 -62 280 -127
143 -66 279 -128 303 -138 23 -11 41 -24 39 -29 -2 -7 -81 -13 -213 -18 -1287
-41 -2416 -274 -3209 -663 -241 -119 -296 -161 -109 -85 98 41 317 119 384
138 19 6 80 23 135 40 536 158 1087 263 1740 331 461 49 697 62 1255 68 708 7
1245 -23 1885 -108 707 -94 1461 -278 1917 -468 54 -23 104 -41 110 -41 15 0
-100 69 -187 112 -798 394 -1946 635 -3223 676 -208 7 -248 13 -211 34 32 18
793 369 878 405 19 8 77 35 129 59 51 24 95 44 97 44 2 0 56 25 120 55 65 30
118 55 120 55 2 0 36 15 77 34 40 19 176 82 303 140 126 57 231 109 233 115 2
5 -30 11 -75 13 -73 4 -83 2 -161 -34 -46 -21 -86 -38 -88 -38 -3 0 -180 -79
-344 -153 -140 -63 -397 -179 -730 -327 -47 -21 -175 -79 -285 -128 -110 -50
-249 -111 -309 -138 -123 -54 -110 -54 -256 13 -41 20 -176 80 -300 135 -124
55 -277 123 -340 152 -63 30 -173 79 -245 111 -71 32 -155 69 -185 82 -76 35
-304 137 -495 222 -88 39 -173 77 -190 85 -43 20 -52 21 -133 18z"/>
<path d="M2944 3861 c4 -6 2 -12 -3 -12 -6 -1 -15 -2 -20 -3 -6 0 -15 -6 -22
-13 -10 -10 -8 -14 7 -19 10 -3 37 -15 60 -25 23 -11 50 -17 60 -13 15 5 16 4
4 -5 -12 -9 -12 -11 2 -16 9 -4 26 -1 37 5 28 14 48 2 25 -14 -22 -16 -5 -28
31 -22 14 3 25 0 25 -5 0 -5 3 -8 8 -8 23 4 42 -3 42 -14 0 -18 70 -56 98 -54
32 2 27 14 -10 21 -33 7 -58 23 -58 38 0 5 10 2 21 -6 12 -8 28 -12 35 -9 23
9 74 -17 74 -38 0 -11 -4 -19 -10 -19 -5 0 -10 -5 -10 -11 0 -6 9 -8 20 -4 11
3 20 2 20 -3 0 -18 48 -31 79 -22 22 6 33 5 38 -4 9 -14 46 -36 62 -36 5 0 12
8 14 18 4 16 5 16 6 -1 0 -10 6 -15 11 -12 6 3 10 1 10 -4 0 -6 -17 -11 -37
-11 l-38 -1 35 -18 c22 -12 37 -15 41 -9 4 6 10 5 15 -5 14 -23 102 -59 127
-52 17 5 19 4 7 -4 -13 -10 -13 -11 0 -11 31 0 41 15 25 36 -20 26 -19 31 10
38 14 4 25 11 25 16 0 6 18 10 40 10 38 0 40 1 40 33 0 42 -9 53 -45 59 -63
10 -240 53 -245 59 -10 14 -79 27 -83 16 -2 -7 -8 -7 -18 -2 -8 5 -21 8 -31 7
-22 -4 -34 18 -17 29 12 7 11 9 -1 9 -9 0 -52 17 -95 39 -44 21 -107 44 -140
51 -33 6 -67 15 -75 19 -27 12 -203 14 -196 2z"/>
<path d="M4258 2543 c78 -2 142 -7 142 -11 0 -5 -24 -8 -52 -7 -126 4 -536 7
-563 5 -25 -3 -23 -4 15 -10 l45 -7 -52 -1 c-30 -1 -53 2 -53 8 0 6 -18 10
-40 10 -34 0 -39 -2 -28 -14 7 -8 17 -11 22 -8 5 3 6 0 2 -6 -4 -7 -35 -10
-81 -8 -78 3 -118 16 -50 16 21 0 36 3 32 6 -3 3 -40 3 -82 -1 -59 -6 -75 -11
-71 -21 4 -11 -6 -14 -42 -13 -43 1 -44 2 -17 9 40 11 -73 6 -223 -9 -103 -11
-186 -29 -139 -30 9 -1 17 -6 17 -12 0 -6 -6 -9 -12 -6 -7 2 -25 0 -40 -4 -21
-6 -28 -4 -28 7 0 8 -7 14 -15 14 -8 0 -15 -7 -15 -15 0 -16 3 -17 79 -19 28
0 44 3 38 7 -7 5 12 7 41 4 28 -2 52 0 52 4 0 5 -13 9 -29 9 -58 0 -40 18 21
22 68 4 80 2 58 -12 -13 -8 -12 -10 0 -14 8 -3 24 -4 35 -2 11 3 56 6 100 7
75 2 77 3 30 9 l-50 7 70 3 c39 2 77 4 85 5 8 0 27 -2 43 -6 15 -4 25 -4 22 1
-9 14 12 21 40 14 20 -5 23 -9 13 -15 -10 -7 -9 -9 5 -9 9 0 17 5 17 11 0 8
15 10 48 6 64 -7 154 3 127 15 -14 6 -8 7 20 3 22 -2 41 -9 43 -14 2 -5 12 -7
22 -4 11 3 17 9 14 14 -2 5 6 11 18 14 47 12 255 8 346 -7 78 -12 95 -12 99
-1 6 14 43 18 43 4 0 -15 50 -19 58 -5 5 9 40 14 127 15 119 2 189 -5 212 -23
7 -6 14 -4 20 7 7 12 17 14 37 9 17 -4 23 -9 16 -14 -6 -4 15 -10 47 -13 31
-3 60 -2 63 3 3 4 21 13 40 18 19 6 29 11 21 11 -11 1 -10 4 4 15 16 12 10 14
-59 21 -43 4 -80 4 -83 1 -4 -3 6 -6 22 -6 23 0 26 -2 15 -15 -15 -18 -40 -20
-40 -4 0 8 -19 10 -63 6 -62 -6 -146 11 -130 26 3 4 -124 6 -283 5 -159 -1
-225 -4 -146 -5z"/>



</g>
</svg>
